<?xml version="1.0" encoding="UTF-8" standalone="no"?>
<svg
   xmlns:dc="http://purl.org/dc/elements/1.1/"
   xmlns:cc="http://creativecommons.org/ns#"
   xmlns:rdf="http://www.w3.org/1999/02/22-rdf-syntax-ns#"
   xmlns:svg="http://www.w3.org/2000/svg"
   xmlns="http://www.w3.org/2000/svg"
   xmlns:sodipodi="http://sodipodi.sourceforge.net/DTD/sodipodi-0.dtd"
   xmlns:inkscape="http://www.inkscape.org/namespaces/inkscape"
   width="30"
   height="30"
   viewBox="0 0 7.9374992 7.9374995"
   version="1.1"
   id="svg8"
   inkscape:version="1.0.2 (e86c870879, 2021-01-15)"
   sodipodi:docname="newcoinLogo.svg">
  <defs
     id="defs2" />
  <sodipodi:namedview
     id="base"
     pagecolor="#ffffff"
     bordercolor="#666666"
     borderopacity="1.0"
     inkscape:pageopacity="0.0"
     inkscape:pageshadow="2"
     inkscape:zoom="5.6"
     inkscape:cx="54.268996"
     inkscape:cy="44.649193"
     inkscape:document-units="px"
     inkscape:current-layer="g934"
     inkscape:document-rotation="0"
     showgrid="false"
     units="px"
     inkscape:window-width="1920"
     inkscape:window-height="975"
     inkscape:window-x="0"
     inkscape:window-y="36"
     inkscape:window-maximized="1" />
  <metadata
     id="metadata5">
    <rdf:RDF>
      <cc:Work
         rdf:about="">
        <dc:format>image/svg+xml</dc:format>
        <dc:type
           rdf:resource="http://purl.org/dc/dcmitype/StillImage" />
        <dc:title></dc:title>
      </cc:Work>
    </rdf:RDF>
  </metadata>
  <g
     inkscape:label="Layer 1"
     inkscape:groupmode="layer"
     id="layer1">
    <g
       style="fill:none"
       id="g934"
       transform="matrix(0.26458333,0,0,0.26458333,78.427153,66.310444)">
      <path
         d="m -285.51278,-244.71651 1.24468,3.74669 0.78374,-0.34925 -1.95427,-3.43184 -1.08573,-4.9797 c -0.6805,0.24607 -1.33994,0.53977 -1.97017,0.87846 z"
         fill="#000000"
         id="path835"
         style="fill:#ffffff;stroke-width:0.0644997" />
      <path
         d="m -293.26387,-244.83015 4.4038,2.56396 2.66139,2.91847 0.57198,-0.63501 -3.18303,-2.34168 -3.01353,-4.10656 c -0.51905,0.49745 -1.00097,1.03193 -1.44322,1.60082 z"
         fill="#000000"
         id="path837"
         style="fill:#ffffff;stroke-width:0.0644997" />
      <path
         d="m -287.31628,-243.6663 1.99674,3.40795 0.69372,-0.5027 -2.62692,-2.95025 -2.0946,-4.64632 c -0.61171,0.381 -1.1943,0.80437 -1.74247,1.26742 z"
         fill="#000000"
         id="path839"
         style="fill:#ffffff;stroke-width:0.0644997" />
      <path
         d="m -291.33859,-234.54012 3.951,-0.0237 -0.09,-0.85202 -3.8715,0.79645 -5.0685,-0.5107 c 0.0237,0.72765 0.098,1.44472 0.22254,2.14323 l 4.85396,-1.55317 z"
         fill="#000000"
         id="path841"
         style="fill:#ffffff;stroke-width:0.0644997" />
      <path
         d="m -291.34915,-236.62526 3.8715,0.79645 0.09,-0.85196 -3.951,-0.0241 -4.85666,-1.55317 c -0.12453,0.6985 -0.19839,1.41294 -0.22207,2.14323 z"
         fill="#000000"
         id="path843"
         style="fill:#ffffff;stroke-width:0.0644997" />
      <path
         d="m -290.92281,-238.66501 3.61993,1.58495 0.26516,-0.81494 -3.86094,-0.84409 -4.42767,-2.53221 c -0.26989,0.6615 -0.49248,1.34679 -0.6673,2.05065 z"
         fill="#000000"
         id="path845"
         style="fill:#ffffff;stroke-width:0.0644997" />
      <path
         d="m -283.53214,-245.36742 0.43704,3.92398 0.83676,-0.17733 -1.1969,-3.76256 -0.0189,-5.09348 c -0.72029,0.0979 -1.42466,0.24872 -2.11052,0.44719 z"
         fill="#000000"
         id="path847"
         style="fill:#ffffff;stroke-width:0.0644997" />
      <path
         d="m -290.08069,-240.57311 3.21215,2.30203 0.42899,-0.74086 -3.60142,-1.62732 -3.8053,-3.39474 c -0.40247,0.59271 -0.76532,1.21714 -1.08047,1.86542 z"
         fill="#000000"
         id="path849"
         style="fill:#ffffff;stroke-width:0.0644997" />
      <path
         d="m -275.53204,-237.08289 3.61994,-1.58496 5.0711,-0.55563 c -0.17472,-0.70386 -0.39727,-1.38915 -0.66735,-2.05066 l -4.42762,2.52956 -3.86089,0.8441 0.26468,0.81494 z"
         fill="#000000"
         id="path851"
         style="fill:#ffffff;stroke-width:0.0644997" />
      <path
         d="m -272.79395,-240.64204 -3.60146,1.62732 0.42899,0.74087 3.21215,-2.30203 4.84601,-1.59547 c -0.31488,-0.65093 -0.67791,-1.27271 -1.08043,-1.86542 z"
         fill="#000000"
         id="path853"
         style="fill:#ffffff;stroke-width:0.0644997" />
      <path
         d="m -275.58251,-243.71343 -2.62691,2.95025 0.69377,0.50276 1.99668,-3.40801 3.77354,-3.42388 c -0.54812,-0.46304 -1.13067,-0.8864 -1.74242,-1.26742 z"
         fill="#000000"
         id="path855"
         style="fill:#ffffff;stroke-width:0.0644997" />
      <path
         d="m -282.49395,-250.58005 1.03805,4.985 -0.38922,3.92924 h 0.85803 l -0.38922,-3.92924 1.0381,-4.985 c -0.35749,-0.0265 -0.71498,-0.0421 -1.07778,-0.0421 -0.3627,0 -0.72028,0.0185 -1.07777,0.0421 z"
         fill="#000000"
         id="path857"
         style="fill:#ffffff;stroke-width:0.0644997" />
      <path
         d="m -277.39373,-244.74836 -1.95431,3.4318 0.78388,0.34925 1.24454,-3.74666 2.98179,-4.13564 c -0.63027,-0.3387 -1.28962,-0.63238 -1.97022,-0.87846 l -1.08307,4.98235 z"
         fill="#000000"
         id="path859"
         style="fill:#ffffff;stroke-width:0.0644997" />
      <path
         d="m -279.37986,-245.38617 -1.19695,3.76259 0.83681,0.17723 0.43704,-3.92395 2.05498,-4.66219 c -0.68586,-0.19848 -1.38759,-0.34661 -2.11057,-0.44719 z"
         fill="#000000"
         id="path861"
         style="fill:#ffffff;stroke-width:0.0644997" />
      <path
         d="m -271.01445,-246.43097 -3.01352,4.10656 -3.18299,2.34168 0.57194,0.63501 2.66138,-2.91847 4.4038,-2.56396 c -0.44224,-0.56625 -0.92417,-1.10337 -1.44321,-1.60082 z"
         fill="#000000"
         id="path863"
         style="fill:#ffffff;stroke-width:0.0644997" />
      <path
         d="m -277.32213,-226.5281 -1.24464,-3.7467 -0.78378,0.3493 1.95427,3.43181 1.08307,4.98233 c 0.68056,-0.24611 1.33995,-0.53977 1.97017,-0.87845 l -2.98175,-4.13567 z"
         fill="#000000"
         id="path865"
         style="fill:#ffffff;stroke-width:0.0644997" />
      <path
         d="m -275.51897,-227.57593 -1.99668,-3.40801 -0.69377,0.5027 2.62691,2.95025 2.09466,4.64636 c 0.61175,-0.38105 1.1943,-0.80437 1.74242,-1.26742 z"
         fill="#000000"
         id="path867"
         style="fill:#ffffff;stroke-width:0.0644997" />
      <path
         d="m -272.75427,-230.66912 -3.21215,-2.30196 -0.42899,0.74086 3.60146,1.62725 3.80526,3.3948 c 0.40247,-0.59271 0.76536,-1.2172 1.08043,-1.86542 z"
         fill="#000000"
         id="path869"
         style="fill:#ffffff;stroke-width:0.0644997" />
      <path
         d="m -269.57123,-226.41173 -4.40381,-2.56392 -2.66133,-2.91853 -0.57203,0.63506 3.18308,2.34169 3.01357,4.10652 c 0.51895,-0.49748 1.00097,-1.03197 1.44317,-1.60082 z"
         fill="#000000"
         id="path871"
         style="fill:#ffffff;stroke-width:0.0644997" />
      <path
         d="m -271.49652,-236.70463 -3.95095,0.0241 0.09,0.85196 3.8715,-0.79644 5.06845,0.51069 c -0.0237,-0.72765 -0.098,-1.44473 -0.22207,-2.14323 l -4.85395,1.55317 z"
         fill="#000000"
         id="path873"
         style="fill:#ffffff;stroke-width:0.0644997" />
      <path
         d="m -271.48591,-234.61948 -3.87155,-0.79645 -0.09,0.85202 3.95095,0.0237 4.85396,1.55317 c 0.12453,-0.69851 0.1984,-1.41294 0.22255,-2.14323 l -5.06846,0.51069 z"
         fill="#000000"
         id="path875"
         style="fill:#ffffff;stroke-width:0.0644997" />
      <path
         d="m -271.9121,-232.57683 -3.61994,-1.58496 -0.26468,0.81495 3.86094,0.84409 4.42762,2.52956 c 0.26989,-0.66149 0.49258,-1.34679 0.6673,-2.05065 l -5.0711,-0.55563 z"
         fill="#000000"
         id="path877"
         style="fill:#ffffff;stroke-width:0.0644997" />
      <path
         d="m -280.3384,-220.66473 -1.0381,-4.98498 0.38922,-3.92929 h -0.85803 l 0.38922,3.92929 -1.03805,4.98498 c 0.35749,0.0265 0.71498,0.0426 1.07777,0.0426 0.3627,0 0.72033,-0.0185 1.07778,-0.0426 z"
         fill="#000000"
         id="path879"
         style="fill:#ffffff;stroke-width:0.0644997" />
      <path
         d="m -279.3031,-225.87485 -0.43704,-3.924 -0.83681,0.17732 1.19695,3.76256 0.0189,5.09348 c 0.72028,-0.0979 1.42475,-0.24871 2.11057,-0.44719 z"
         fill="#000000"
         id="path881"
         style="fill:#ffffff;stroke-width:0.0644997" />
      <path
         d="m -287.25274,-227.53099 2.62692,-2.95025 -0.69372,-0.5027 -1.99674,3.40801 -3.77353,3.42388 c 0.54817,0.46304 1.13076,0.88638 1.74247,1.26742 z"
         fill="#000000"
         id="path883"
         style="fill:#ffffff;stroke-width:0.0644997" />
      <path
         d="m -290.04097,-230.60045 3.60142,-1.62725 -0.42899,-0.74087 -3.21215,2.30197 -4.84605,1.59553 c 0.31487,0.65086 0.6779,1.27271 1.08047,1.86542 z"
         fill="#000000"
         id="path885"
         style="fill:#ffffff;stroke-width:0.0644997" />
      <path
         d="m -291.82056,-224.81349 3.01357,-4.10652 3.18299,-2.34168 -0.57198,-0.635 -2.66139,2.91846 -4.40111,2.56393 c 0.44225,0.56627 0.92418,1.1034 1.44322,1.60081 z"
         fill="#000000"
         id="path887"
         style="fill:#ffffff;stroke-width:0.0644997" />
      <path
         d="m -285.44128,-226.49367 1.95431,-3.43181 -0.78382,-0.3493 -1.24464,3.7467 -2.9791,4.13566 c 0.63023,0.3387 1.28967,0.63236 1.97017,0.87846 l 1.08308,-4.98234 z"
         fill="#000000"
         id="path889"
         style="fill:#ffffff;stroke-width:0.0644997" />
      <path
         d="m -290.89899,-232.50275 3.86094,-0.84402 -0.26469,-0.81502 -3.61993,1.58496 -5.0711,0.55564 c 0.17472,0.70385 0.39726,1.38915 0.66725,2.05064 l 4.42767,-2.52955 z"
         fill="#000000"
         id="path891"
         style="fill:#ffffff;stroke-width:0.0644997" />
      <path
         d="m -283.45254,-225.85899 1.19695,-3.76256 -0.83677,-0.17732 -0.43703,3.924 -2.05488,4.66215 c 0.68581,0.19847 1.38753,0.34661 2.11047,0.44719 z"
         fill="#000000"
         id="path893"
         style="fill:#ffffff;stroke-width:0.0644997" />
    </g>
  </g>
</svg>
